<svg width="66" height="45" viewBox="0 0 66 45" fill="none" xmlns="http://www.w3.org/2000/svg">
<path d="M20.0042 31.9728H24.4573V44.0197H32.6839V9.89465H19.2542C15.2073 9.89465 12.0432 10.7931 9.76199 12.59C7.48074 14.3868 6.34012 16.9259 6.34012 20.2072C6.34012 22.5822 6.82449 24.5509 7.79324 26.1134C8.74637 27.6759 10.2464 28.9415 12.2932 29.9103L5.16824 43.6681V44.0197H13.9807L20.0042 31.9728ZM24.4573 25.6212H19.2542C17.6917 25.6212 16.5198 25.215 15.7386 24.4025C14.9417 23.5743 14.5432 22.4259 14.5432 20.9572C14.5432 19.4884 14.9417 18.34 15.7386 17.5118C16.5354 16.6681 17.7073 16.2462 19.2542 16.2462H24.4573V25.6212Z" fill="black"/>
<path d="M46.1316 32.4707L46.0913 44.0488L37.8648 44.0114L37.9836 9.88664L51.6006 9.94843C54.21 9.96027 56.513 10.4551 58.5096 11.4329C60.5219 12.3952 62.0718 13.7694 63.1593 15.5556C64.2625 17.3263 64.8102 19.3366 64.8024 21.5866C64.7908 24.9147 63.5862 27.5733 61.1887 29.5624C58.8068 31.536 55.5378 32.5134 51.3815 32.4945L46.1316 32.4707ZM46.1537 26.1192L51.5443 26.1436C53.138 26.1509 54.3503 25.7579 55.1812 24.9648C56.0277 24.1718 56.4535 23.0487 56.4586 21.5956C56.4641 20.0018 56.0389 18.7265 55.1828 17.7694C54.3268 16.8124 53.1566 16.3227 51.6723 16.3004L46.188 16.2755L46.1537 26.1192Z" fill="black"/>
</svg>
